<svg viewBox="0 0 24 24" fill="none" stroke="currentColor" stroke-width="2">
  <circle cx="12" cy="12" r="3"/>
  <path d="M19.4 15a1.7 1.7 0 0 0 .33 1.82l.06.06a2 2 0 1 1-2.83 2.83l-.06-.06A1.7 1.7 0 0 0 15 19.4a1.7 1.7 0 0 0-1 .6 1.7 1.7 0 0 0-.4 1.1V21a2 2 0 1 1-4 0v-.1a1.7 1.7 0 0 0-.4-1.1 1.7 1.7 0 0 0-1-.6 1.7 1.7 0 0 0-1.82.33l-.06.06a2 2 0 1 1-2.83-2.83l.06-.06A1.7 1.7 0 0 0 4.6 15a1.7 1.7 0 0 0-.6-1 1.7 1.7 0 0 0-1.1-.4H3a2 2 0 1 1 0-4h.1a1.7 1.7 0 0 0 1.1-.4 1.7 1.7 0 0 0 .6-1 1.7 1.7 0 0 0-.33-1.82l-.06-.06A2 2 0 1 1 7.24 3.4l.06.06A1.7 1.7 0 0 0 9 4.6c.38 0 .75-.14 1-.4.26-.25.4-.62.4-1V3a2 2 0 1 1 4 0v.1c0 .38.14.75.4 1 .25.26.62.4 1 .4.63 0 1.24-.25 1.7-.7l.06-.06A2 2 0 1 1 20.6 7.24l-.06.06c-.45.46-.7 1.07-.7 1.7 0 .38.14.75.4 1 .25.26.62.4 1 .4H21a2 2 0 1 1 0 4h-.1c-.38 0-.75.14-1 .4-.26.25-.4.62-.4 1z"/>
</svg>
